<?xml version="1.0" encoding="UTF-8"?>
<svg version="1.1" xmlns="http://www.w3.org/2000/svg"
  viewBox="0 0 800 800"
>
<path d="M0 0 C2.5625 1.0625 2.5625 1.0625 4.09863281 4.40820312 C5.92725819 9.6899223 6.74439666 15.07772835 7.546875 20.59375 C7.71483582 21.71906128 7.88279663 22.84437256 8.05584717 24.00378418 C10.00142275 37.46989895 11.33026547 51.00055876 12.61853027 64.54217529 C12.88056225 67.27141398 13.15171215 69.99971776 13.42284012 72.72806549 C13.75051069 76.03697248 14.07034322 79.34661946 14.390625 82.65625 C14.50931946 83.85737427 14.62801392 85.05849854 14.75030518 86.29602051 C15.37412433 92.90923013 15.72196128 99.41993356 15.5625 106.0625 C16.71878906 105.90910156 17.87507813 105.75570312 19.06640625 105.59765625 C85.39121616 97.3669346 160.51697456 107.13369715 219.5625 139.0625 C220.160625 139.37896484 220.75875 139.69542969 221.375 140.02148438 C252.26272125 156.43058629 275.8489336 182.57379566 286.51953125 216.06640625 C297.95941743 257.48668379 284.06484107 301.40202065 264.5625 338.0625 C264.19962891 338.7548877 263.83675781 339.44727539 263.46289062 340.16064453 C245.13458537 374.9796926 219.94698387 406.40229565 193.23046875 435.1484375 C191.26618859 437.29390309 189.36065896 439.45805573 187.46777344 441.66430664 C183.30869414 446.42249185 178.88296491 450.88597419 174.41015625 455.34765625 C173.12171059 456.637537 173.12171059 456.637537 171.80723572 457.95347595 C170.00072985 459.76065861 168.19297538 461.56659392 166.3840332 463.37133789 C163.6331319 466.11688393 160.88760779 468.86772546 158.14257812 471.61914062 C156.37792468 473.3831332 154.61296103 475.1468155 152.84765625 476.91015625 C152.03595474 477.72388199 151.22425323 478.53760773 150.38795471 479.37599182 C146.1368114 483.60990296 141.80796443 487.68355306 137.26063538 491.59794617 C135.34452029 493.25049621 133.49578389 494.96144599 131.66796875 496.7109375 C131.02827148 497.31905273 130.38857422 497.92716797 129.72949219 498.55371094 C129.07625977 499.17536133 128.42302734 499.79701172 127.75 500.4375 C122.39529574 505.49954326 116.9674314 510.29988997 111.203125 514.890625 C108.22154218 517.34293277 105.38693205 519.93340081 102.5625 522.5625 C97.98330601 526.8179126 93.26962833 530.83573621 88.3984375 534.7578125 C85.30662357 537.27044365 82.27812812 539.84897552 79.25 542.4375 C74.15953731 546.77514244 68.96033494 550.95034385 63.67944336 555.0534668 C58.91823495 558.75692681 54.28036234 562.58779675 49.671875 566.48046875 C47.5625 568.0625 47.5625 568.0625 45.5625 568.0625 C45.65646057 569.74926598 45.65646057 569.74926598 45.75231934 571.47010803 C46.342983 582.07815887 46.93161114 592.68632096 47.51825714 603.29459476 C47.81990733 608.74813023 48.12226938 614.20162428 48.42626953 619.6550293 C48.7197311 624.91985924 49.01130805 630.1847905 49.30158997 635.44979668 C49.41255364 637.45642237 49.52419127 639.46301091 49.63652039 641.46956062 C49.79398089 644.28437997 49.94902412 647.09932299 50.10351562 649.91430664 C50.15026932 650.74005692 50.19702301 651.56580719 50.24519348 652.4165802 C50.94423528 665.29902944 50.94423528 665.29902944 49.5625 668.0625 C47.89638095 668.105221 46.22867115 668.10313832 44.5625 668.0625 C41.42620331 664.92620331 42.29518131 655.49074555 42.08178711 651.19702148 C42.0426268 650.45607239 42.00346649 649.71512329 41.96311951 648.95172119 C41.83583797 646.5291512 41.71273293 644.1063902 41.58984375 641.68359375 C41.50179456 639.98542751 41.41353939 638.28727195 41.3250885 636.58912659 C41.14092323 633.04136137 40.9587418 629.49350176 40.77807617 625.94555664 C40.5470688 621.4107262 40.31187644 616.8761249 40.07529354 612.3415823 C39.89287574 608.83884306 39.71229002 605.33601127 39.53228951 601.83314705 C39.44624339 600.16146484 39.35972622 598.4898068 39.27271843 596.81817436 C39.15128835 594.47839876 39.03223348 592.13851387 38.91381836 589.79858398 C38.87798645 589.11631241 38.84215454 588.43404083 38.80523682 587.73109436 C38.59445444 583.50417787 38.53169627 579.29429831 38.5625 575.0625 C28.45777559 582.60888541 18.40064542 590.21413955 8.39575195 597.89257812 C7.53554443 598.55064453 6.67533691 599.20871094 5.7890625 599.88671875 C5.02158691 600.47541748 4.25411133 601.06411621 3.46337891 601.6706543 C1.5625 603.0625 1.5625 603.0625 -0.4375 604.0625 C-0.50973677 611.54619249 -0.30861773 618.97513295 0.11328125 626.44628906 C0.17180267 627.52595444 0.2303241 628.60561981 0.2906189 629.71800232 C0.41701004 632.04346925 0.54473477 634.36886402 0.67367554 636.69419098 C0.87827164 640.38717848 1.07892844 644.08036185 1.27856445 647.77362061 C1.84662069 658.26816081 2.42234633 668.76227813 2.99902344 679.25634766 C3.35254226 685.69441658 3.70208676 692.13269225 4.04940796 698.57109833 C4.24570037 702.18643402 4.44664506 705.80149176 4.64770508 709.41656494 C4.98847723 715.63045626 5.29062718 721.84523624 5.5625 728.0625 C5.60183655 728.88535995 5.6411731 729.70821991 5.68170166 730.55601501 C5.7759314 732.67904598 5.84199759 734.80039267 5.89453125 736.92480469 C5.92909424 738.03780945 5.96365723 739.15081421 5.99926758 740.29754639 C5.45016924 743.77360899 4.29255374 744.91946008 1.5625 747.0625 C-0.4375 747.62890625 -0.4375 747.62890625 -2.4375 747.625 C-3.0975 747.64691406 -3.7575 747.66882813 -4.4375 747.69140625 C-7.69509789 746.66704441 -8.63346251 744.93493035 -10.4375 742.0625 C-11.14071418 738.78225461 -11.25184623 735.51427349 -11.37890625 732.16796875 C-11.4581987 730.67465279 -11.4581987 730.67465279 -11.53909302 729.15116882 C-11.71022188 725.85139935 -11.85514484 722.55101874 -12 719.25 C-12.11453589 716.93822611 -12.23085838 714.62654012 -12.34887695 712.31494141 C-12.59622492 707.42989739 -12.8338042 702.54450497 -13.06542969 697.65869141 C-13.43195332 690.03433608 -13.85510684 682.41374366 -14.2890625 674.79296875 C-14.49983958 671.05207175 -14.71015684 667.31114913 -14.92037964 663.57022095 C-15.05520532 661.17659758 -15.1908661 658.78302107 -15.3274231 656.38949585 C-16.08923725 642.93212162 -16.64293077 629.54267175 -16.4375 616.0625 C-17.10616089 616.55109497 -17.10616089 616.55109497 -17.78833008 617.04956055 C-27.22610473 623.93424843 -36.73590398 630.68784075 -46.39770508 637.25463867 C-51.61601907 640.80484247 -56.790403 644.40993532 -61.9375 648.0625 C-64.02350335 649.53533655 -66.1102917 651.00705474 -68.19726562 652.47851562 C-69.78170648 653.59881339 -71.36348225 654.72288485 -72.94335938 655.84960938 C-75.51697945 657.68184152 -78.10115604 659.49828789 -80.6875 661.3125 C-81.48607422 661.88613281 -82.28464844 662.45976563 -83.10742188 663.05078125 C-83.86087891 663.57542969 -84.61433594 664.10007812 -85.390625 664.640625 C-86.38304199 665.34300293 -86.38304199 665.34300293 -87.39550781 666.05957031 C-89.91504953 667.29704968 -91.66279478 667.32768697 -94.4375 667.0625 C-96.85402971 665.4792564 -97.34230825 664.51466081 -97.9375 661.6875 C-97.11301579 657.35895792 -93.86173318 655.09553641 -90.42871094 652.60546875 C-87.99153327 650.95756251 -85.53173707 649.34946231 -83.0625 647.75 C-63.98572499 635.20914352 -45.28355244 622.09022702 -26.953125 608.48046875 C-25.95796875 607.74441406 -24.9628125 607.00835938 -23.9375 606.25 C-23.1021875 605.62480469 -22.266875 604.99960937 -21.40625 604.35546875 C-19.4375 603.0625 -19.4375 603.0625 -17.4375 603.0625 C-17.66995092 602.03999618 -17.66995092 602.03999618 -17.90709782 600.99683571 C-18.50506554 597.68870819 -18.7320781 594.47004938 -18.92393494 591.11312866 C-18.96421375 590.42553581 -19.00449257 589.73794296 -19.04599196 589.02951396 C-19.1797706 586.7312821 -19.30849943 584.43279562 -19.43725586 582.13427734 C-19.53236888 580.48277018 -19.62780038 578.83128134 -19.723526 577.17980957 C-19.92909101 573.62179174 -20.13243019 570.06365611 -20.33405876 566.50541306 C-20.65447195 560.85175416 -20.98003042 555.19839858 -21.30628967 549.54507446 C-21.88244499 539.55033173 -22.45431694 529.55534738 -23.02520752 519.56030273 C-23.87983777 504.59773482 -24.73751231 489.63534243 -25.59966379 474.67320597 C-25.92164025 469.08265617 -26.24126484 463.49197843 -26.5591014 457.90119183 C-27.67659104 438.27300728 -28.88075985 418.66169896 -30.4375 399.0625 C-31.30450027 398.70122513 -32.17150055 398.33995026 -33.06477356 397.96772766 C-36.0357647 396.72926251 -39.00597484 395.48895623 -41.97567749 394.24740601 C-43.36506131 393.66656754 -44.75456707 393.08602068 -46.14419556 392.50576782 C-54.1353063 389.16689943 -62.10679501 385.79024275 -70.03515625 382.3046875 C-70.72011169 382.00429062 -71.40506714 381.70389374 -72.11077881 381.39439392 C-75.4076625 379.94773721 -78.70077138 378.4933499 -81.98876953 377.02661133 C-83.17196777 376.50607178 -84.35516602 375.98553223 -85.57421875 375.44921875 C-86.61280029 374.98733154 -87.65138184 374.52544434 -88.72143555 374.04956055 C-91.58242989 372.83479339 -91.58242989 372.83479339 -95.4375 373.0625 C-97.06280818 374.87914495 -97.06280818 374.87914495 -98.33984375 377.359375 C-98.85401855 378.27654297 -99.36819336 379.19371094 -99.89794922 380.13867188 C-102.36206526 384.81838226 -104.69694334 389.55187981 -107 394.3125 C-122.73763394 426.22506162 -142.81638168 456.43570045 -166.4375 483.0625 C-167.66725555 484.47865551 -168.89651902 485.89523869 -170.125 487.3125 C-171.22847779 488.56310817 -172.33265683 489.81309791 -173.4375 491.0625 C-174.05109375 491.76890625 -174.6646875 492.4753125 -175.296875 493.203125 C-180.17743777 498.74421507 -185.28956877 504.01970231 -190.5 509.25 C-191.16056396 509.91515625 -191.82112793 510.5803125 -192.50170898 511.265625 C-201.53417622 520.27012102 -211.3813315 528.2400919 -221.4375 536.0625 C-222.7678125 537.10470703 -222.7678125 537.10470703 -224.125 538.16796875 C-227.60207983 540.70937606 -230.39509257 542.42298314 -234.75 542.75 C-238.4375 542.0625 -238.4375 542.0625 -241 540 C-242.4375 537.0625 -242.4375 537.0625 -242.8125 533.75 C-240.66964371 528.00324905 -236.31624606 525.55819451 -231.4375 522.0625 C-211.15241971 506.94461545 -191.92727739 489.09510416 -176.4375 469.0625 C-174.83839908 467.16239185 -173.23391704 465.26680355 -171.625 463.375 C-165.59368111 456.16591175 -160.02015904 448.62115176 -154.4375 441.0625 C-158.02764452 443.90334031 -161.51961191 446.83878065 -165 449.8125 C-177.24899902 460.07154089 -177.24899902 460.07154089 -183.4375 463.0625 C-186.28515625 462.76953125 -186.28515625 462.76953125 -188.4375 462.0625 C-188.82421875 459.8515625 -188.82421875 459.8515625 -188.4375 457.0625 C-186.38820233 455.26206756 -184.52795734 453.88681211 -182.25 452.4375 C-180.94745289 451.55660284 -179.64803728 450.67106005 -178.3515625 449.78125 C-177.69188477 449.33007812 -177.03220703 448.87890625 -176.35253906 448.4140625 C-164.77679177 440.2443357 -154.56701641 429.90394847 -144.4375 420.0625 C-143.66116211 419.3204834 -143.66116211 419.3204834 -142.86914062 418.56347656 C-134.59076643 410.57116749 -129.57511112 401.21284364 -124.4375 391.0625 C-123.91140137 390.03334473 -123.38530273 389.00418945 -122.84326172 387.94384766 C-87.37372102 318.08022157 -70.0686958 241.5261823 -63.4375 131.0625 C-98.41973785 142.27536148 -132.27183689 154.52641179 -162.4375 176.0625 C-163.65373047 176.93068359 -163.65373047 176.93068359 -164.89453125 177.81640625 C-190.95955244 197.30646714 -211.13629283 223.38469825 -216.4375 256.0625 C-216.97171276 260.14951047 -217.41854555 264.24298939 -217.75512695 268.35107422 C-218.23670434 273.86170434 -218.23670434 273.86170434 -220.4375 276.0625 C-223.375 276.4375 -223.375 276.4375 -226.4375 276.0625 C-229.11426692 273.62010438 -229.4269506 272.2332084 -229.65234375 268.5859375 C-229.58155491 267.2018472 -229.48764474 265.81881394 -229.375 264.4375 C-229.32118164 263.6940332 -229.26736328 262.95056641 -229.21191406 262.18457031 C-226.54863984 231.14768195 -211.93265425 205.94277849 -190.4375 184.0625 C-189.65511963 183.26392578 -189.65511963 183.26392578 -188.85693359 182.44921875 C-173.082382 166.57326967 -154.27583554 155.16305775 -134.4375 145.0625 C-133.69967285 144.68399902 -132.9618457 144.30549805 -132.20166016 143.91552734 C-110.63747555 132.96957346 -86.91912979 124.7375699 -63.4375 119.0625 C-63.32474731 117.55067139 -63.32474731 117.55067139 -63.2097168 116.00830078 C-62.92450597 112.22401913 -62.62461319 108.44101326 -62.32055664 104.65820312 C-62.19162687 103.02927763 -62.06653728 101.40004298 -61.94555664 99.77050781 C-60.30014926 77.69631822 -60.30014926 77.69631822 -56.08081055 72.34033203 C-53.69733825 70.48695304 -51.37205031 70.52239384 -48.43359375 70.66796875 C-44.74561364 71.39690415 -43.53236197 73.00998684 -41.4375 76.0625 C-36.88859808 86.82754844 -35.25561836 101.40401586 -35.4375 113.0625 C-34.43589844 112.85753906 -33.43429687 112.65257812 -32.40234375 112.44140625 C-31.05991711 112.16916588 -29.71746799 111.8970364 -28.375 111.625 C-27.38983398 111.42293945 -27.38983398 111.42293945 -26.38476562 111.21679688 C-23.09048245 110.55144904 -19.83807241 109.98094928 -16.50390625 109.52734375 C-13.56996834 109.3926811 -13.56996834 109.3926811 -12.4375 108.0625 C-12.22888045 106.20315664 -12.0880303 104.33619978 -11.97265625 102.46875 C-11.89595703 101.23463379 -11.81925781 100.00051758 -11.74023438 98.72900391 C-11.65984338 97.34018735 -11.57977636 95.951352 -11.5 94.5625 C-11.45770264 93.85631531 -11.41540527 93.15013062 -11.37182617 92.42254639 C-10.77875967 82.49693477 -10.31924319 72.56856238 -9.93359375 62.6328125 C-9.89186539 61.56444153 -9.85013702 60.49607056 -9.80714417 59.39532471 C-9.60190175 54.09264383 -9.40584678 48.78982449 -9.22290039 43.48632812 C-8.88513489 34.11910335 -8.44165931 24.78927854 -7.5 15.4609375 C-7.42531494 14.69584869 -7.35062988 13.93075989 -7.27368164 13.14248657 C-6.8064266 8.89480582 -6.08667201 5.01579657 -4.4375 1.0625 C-2.4375 0.0625 -2.4375 0.0625 0 0 Z M-0.4375 21.0625 C-1.49456994 24.58757786 -1.6604632 27.95995398 -1.81054688 31.62841797 C-1.83834732 32.27951035 -1.86614777 32.93060272 -1.89479065 33.60142517 C-1.98574258 35.75237262 -2.07092917 37.90350997 -2.15625 40.0546875 C-2.21926638 41.56244638 -2.28270921 43.0701875 -2.34655762 44.57791138 C-2.51406359 48.55410053 -2.67697355 52.53046342 -2.83856201 56.50689697 C-3.09613168 62.83459408 -3.35927637 69.16205547 -3.62501526 75.48941422 C-3.71612655 77.67913674 -3.80445427 79.86895799 -3.89245605 82.05880737 C-4.24891638 90.74216213 -4.76389742 99.39799465 -5.4375 108.0625 C-0.6041528 108.14583357 3.79942563 108.01511487 8.5625 107.0625 C8.75362033 98.67437408 8.16535951 90.47846791 7.3203125 82.13671875 C7.12766312 80.17893242 7.12766312 80.17893242 6.93112183 78.18159485 C6.66038903 75.43395082 6.38606433 72.68669848 6.10888672 69.93969727 C5.75803893 66.46123409 5.4145808 62.98209233 5.07367134 59.50264263 C4.74255578 56.130334 4.40631002 52.75854457 4.0703125 49.38671875 C3.9493924 48.15918381 3.82847229 46.93164886 3.70388794 45.66691589 C2.86947201 37.42729494 1.79302294 29.25203595 0.5625 21.0625 C0.2325 21.0625 -0.0975 21.0625 -0.4375 21.0625 Z M31.375 115.5078125 C30.35104126 115.56592606 30.35104126 115.56592606 29.30639648 115.62521362 C25.01821427 115.89730136 20.81148668 116.43707655 16.5625 117.0625 C16.63472275 118.06805435 16.7069455 119.0736087 16.78135681 120.1096344 C22.47778879 199.46598467 27.82471652 278.83834868 32.6875 358.25 C32.74076447 359.11963347 32.79402893 359.98926695 32.84890747 360.88525295 C35.92466288 411.1148953 38.91149396 461.34906624 41.67480755 511.59698105 C41.89876508 515.66875938 42.12397681 519.74046809 42.34907722 523.81218338 C42.49779389 526.51770725 42.64387865 529.22336315 42.78965759 531.92904663 C43.2121423 539.66161788 43.69455194 547.36428427 44.5625 555.0625 C55.50078004 546.96817277 66.12404567 538.52570934 76.46875 529.6875 C79.3580132 527.22334036 82.29768458 524.82589 85.25 522.4375 C89.63976647 518.86724131 93.84077693 515.13367495 98.01953125 511.3203125 C100.70027224 508.94017687 103.45754134 506.68518159 106.25 504.4375 C110.0374006 501.37353547 113.53231472 498.21150283 116.91796875 494.71484375 C118.57091603 493.05404399 120.28501638 491.52627609 122.0625 490 C133.02874754 480.5214217 143.38698915 470.37634861 153.5625 460.0625 C155.22787718 458.39454484 156.89451841 456.7278507 158.5625 455.0625 C159.31789063 454.30582031 160.07328125 453.54914063 160.8515625 452.76953125 C163.0706932 450.55359815 165.29577352 448.34405543 167.5234375 446.13671875 C168.99484884 444.6745367 170.4662016 443.2122957 171.9375 441.75 C172.66710937 441.02876953 173.39671875 440.30753906 174.1484375 439.56445312 C178.26825294 435.46302972 182.21104718 431.27488263 186.00341797 426.86889648 C188.09458349 424.44601304 190.26587593 422.10076478 192.4375 419.75 C196.47529322 415.31753526 200.33557434 410.78507823 204.09765625 406.1171875 C205.90335175 403.8793842 207.72229312 401.65768101 209.55859375 399.4453125 C221.99770606 384.4040734 233.2420706 368.62610377 243.5625 352.0625 C243.97032715 351.41587402 244.3781543 350.76924805 244.79833984 350.10302734 C257.73156253 329.47752976 267.74876337 307.42254198 274.5625 284.0625 C275.09617187 282.31066406 275.09617187 282.31066406 275.640625 280.5234375 C283.14659816 252.63359606 280.2999774 221.52499286 265.89453125 196.40576172 C260.43948837 187.23953245 254.19888666 179.48108363 246.5625 172.0625 C245.76457031 171.26714844 244.96664062 170.47179687 244.14453125 169.65234375 C224.21901632 150.72811098 198.39363599 139.34988322 172.5625 131.0625 C171.20560059 130.62599121 171.20560059 130.62599121 169.82128906 130.18066406 C150.1413583 123.96710467 130.01453082 120.3095978 109.5625 117.8125 C108.88819946 117.72941589 108.21389893 117.64633179 107.51916504 117.56072998 C91.96721518 115.67099662 76.49299839 114.88831059 60.83300781 114.93212891 C58.56308319 114.93749862 56.29335631 114.93213272 54.0234375 114.92578125 C46.46082542 114.92191197 38.92605451 115.07500563 31.375 115.5078125 Z M-2.59570312 118.56860352 C-3.86349609 118.73158936 -5.13128906 118.8945752 -6.4375 119.0625 C-6.55230713 119.99481445 -6.66711426 120.92712891 -6.78540039 121.88769531 C-10.51947031 151.93111661 -15.19665601 181.76146056 -23.30419922 210.97290039 C-23.58408691 212.01438232 -23.86397461 213.05586426 -24.15234375 214.12890625 C-24.40105225 215.01521729 -24.64976074 215.90152832 -24.90600586 216.81469727 C-26.27005663 225.15000612 -25.35573828 233.83010287 -24.75073242 242.21386719 C-24.67752274 243.27139191 -24.60431305 244.32891663 -24.52888489 245.41848755 C-24.28709634 248.89903882 -24.03999776 252.37919209 -23.79296875 255.859375 C-23.62042252 258.33178158 -23.44825512 260.80421463 -23.27644348 263.27667236 C-22.82217518 269.80182609 -22.36360711 276.32667002 -21.90386963 282.85144043 C-21.18014187 293.13125747 -20.4621359 303.4114764 -19.74502945 313.6917572 C-19.56894158 316.21607009 -19.39270052 318.7403723 -19.21630478 321.2646637 C-17.52247542 345.52431582 -15.94756319 369.79076788 -14.4375 394.0625 C-11.29287996 395.39870809 -8.14660887 396.73098288 -5 398.0625 C-4.10216797 398.4440625 -3.20433594 398.825625 -2.27929688 399.21875 C-1.42529297 399.5796875 -0.57128906 399.940625 0.30859375 400.3125 C1.49473267 400.81523438 1.49473267 400.81523438 2.70483398 401.328125 C4.38456892 402.12377279 4.38456892 402.12377279 5.5625 402.0625 C5.68625 400.94875 5.81 399.835 5.9375 398.6875 C6.5625 395.0625 6.5625 395.0625 8.5625 393.0625 C11.6875 393.4375 11.6875 393.4375 14.5625 394.0625 C16.36408106 400.80884611 17.95288115 407.58928522 19.3125 414.4375 C19.45212158 415.10265625 19.59174316 415.7678125 19.7355957 416.453125 C20.53342652 420.60538883 20.50592254 423.94458808 19.5625 428.0625 C17.2525 428.0625 14.9425 428.0625 12.5625 428.0625 C11.20281858 424.95465674 10.51498633 422.6092927 10.15625 419.1875 C9.44467 416.2853698 8.91134714 415.30695697 6.43310547 413.5703125 C3.64066173 412.24970757 0.83646413 411.12874204 -2.0625 410.0625 C-3.05507813 409.66933594 -4.04765625 409.27617187 -5.0703125 408.87109375 C-7.5166429 407.90667504 -9.97045442 406.97231439 -12.4375 406.0625 C-13.64443931 409.74560123 -13.41469219 413.03466207 -13.18484497 416.87866211 C-13.14556944 417.56373337 -13.1062939 418.24880463 -13.0658282 418.95463562 C-12.93271814 421.25009046 -12.79080546 423.54491551 -12.64892578 425.83984375 C-12.55164969 427.48593605 -12.45491212 429.13206025 -12.3586731 430.7782135 C-12.09553999 435.25212591 -11.82474984 439.7255458 -11.55253458 444.19891357 C-11.26848152 448.88691398 -10.99118955 453.57531438 -10.71310425 458.26367188 C-10.2446161 466.14591869 -9.77158127 474.02788171 -9.29541016 481.90966797 C-8.62578909 492.99377851 -7.96487998 504.07839617 -7.30547357 515.16311836 C-6.84691688 522.86546037 -6.38610019 530.56766742 -5.92496634 538.2698555 C-5.81360379 540.13039306 -5.70232039 541.99093535 -5.59111643 543.85148239 C-5.27340525 549.16660352 -4.9542854 554.48163618 -4.6329155 559.7965374 C-4.53610733 561.40080386 -4.4397558 563.00509797 -4.34391785 564.60942268 C-3.81617008 573.43712095 -3.22544897 582.25334564 -2.4375 591.0625 C5.89784752 585.78279588 13.62862818 579.73909795 21.42773438 573.7109375 C23.45363833 572.14656153 25.48361513 570.5876831 27.515625 569.03125 C32.72285375 565.25640483 32.72285375 565.25640483 37.5625 561.0625 C37.6597114 558.68555497 37.69214697 556.34310846 37.67344666 553.9662323 C37.67013869 553.24530842 37.66683073 552.52438454 37.66342252 551.78161448 C37.60200379 544.37632277 37.22610821 536.99425886 36.78735352 529.6027832 C36.70285853 528.12175796 36.61875308 526.64071044 36.53499794 525.15964317 C36.30713547 521.15162485 36.07352382 517.1439609 35.83870864 513.13634467 C35.6386493 509.7096358 35.4419313 506.28273827 35.24522549 502.8558355 C34.65867651 492.63745012 34.0633875 482.41958586 33.46562958 472.20185089 C33.12361204 466.35483612 32.78343118 460.50771525 32.44342041 454.6605835 C27.8210966 375.21359326 23.03273753 295.77474825 14.32733917 170.57311249 C14.06457369 166.90395621 13.80286887 163.23472525 13.54119873 159.56549072 C13.13897633 153.93637021 12.73164084 148.30764362 12.31972885 142.67922401 C12.17045989 140.63339204 12.02251835 138.58746273 11.87598038 136.54143333 C11.67730127 133.77445262 11.47326437 131.00792244 11.26757812 128.24145508 C11.21048361 127.43185648 11.15338909 126.62225788 11.09456444 125.78812599 C10.8570897 121.79559386 10.8570897 121.79559386 9.5625 118.0625 C8.4075 118.041875 7.2525 118.02125 6.0625 118 C5.4128125 117.98839844 4.763125 117.97679687 4.09375 117.96484375 C1.82666183 118.05230857 -0.34752363 118.27958044 -2.59570312 118.56860352 Z M-27.3125 122.5625 C-28.00085938 122.70558594 -28.68921875 122.84867187 -29.3984375 122.99609375 C-31.0792383 123.34626058 -32.75853438 123.70363712 -34.4375 124.0625 C-33.67420867 132.79058646 -32.90931261 141.51853041 -32.1424036 150.24629974 C-31.7862947 154.29954866 -31.43072547 158.35284336 -31.07641602 162.40625 C-30.73406194 166.32264963 -30.39025571 170.23891938 -30.04546928 174.15510559 C-29.9145955 175.64447046 -29.78423291 177.13388034 -29.65440559 178.62333679 C-28.71927036 189.36144882 -28.71927036 189.36144882 -27.4375 200.0625 C-27.1075 200.0625 -26.7775 200.0625 -26.4375 200.0625 C-22.7163726 183.40372075 -19.19812041 166.74378263 -16.5625 149.875 C-16.35987549 148.59625 -16.15725098 147.3175 -15.94848633 146 C-14.68849916 137.69071908 -13.91291975 129.45164408 -13.4375 121.0625 C-18.23523801 120.88314531 -22.64368421 121.55816172 -27.3125 122.5625 Z M-48.4375 157.0625 C-48.54239746 158.54568726 -48.54239746 158.54568726 -48.64941406 160.05883789 C-52.80129334 218.12993067 -60.56446503 277.71041088 -81.84985352 332.33300781 C-83.32269353 336.11547075 -83.32269353 336.11547075 -82.4375 340.0625 C-75.51519191 327.52188575 -68.61044689 314.99220104 -62.4375 302.0625 C-62.06447754 301.28600098 -61.69145508 300.50950195 -61.30712891 299.70947266 C-46.69146141 271.13502551 -46.69146141 271.13502551 -40.29296875 240.49047852 C-40.29532028 239.73687577 -40.29767181 238.98327303 -40.3000946 238.20683384 C-40.37699763 229.84215117 -41.03506878 221.54491813 -41.75 213.21484375 C-41.88512781 211.58009253 -42.01963688 209.94529005 -42.15356445 208.31044006 C-42.50254647 204.0703037 -42.85975526 199.83090216 -43.21887207 195.59161377 C-43.58592792 191.24053655 -43.94493666 186.88879558 -44.3046875 182.53710938 C-45.00789267 174.04491535 -45.71981809 165.5534828 -46.4375 157.0625 C-47.0975 157.0625 -47.7575 157.0625 -48.4375 157.0625 Z M-39.4375 264.0625 C-39.70788086 264.74425293 -39.97826172 265.42600586 -40.25683594 266.12841797 C-53.08742817 298.35546712 -67.70446647 328.93418618 -86.32104492 358.25683594 C-87.47525611 360.06301018 -87.47525611 360.06301018 -88.4375 362.0625 C-74.92076439 368.11680356 -61.38785713 374.13558434 -47.79187012 380.01013184 C-45.95639243 380.80432542 -44.12320124 381.60379657 -42.29003906 382.40332031 C-41.17338867 382.88381836 -40.05673828 383.36431641 -38.90625 383.859375 C-37.92076172 384.28573242 -36.93527344 384.71208984 -35.91992188 385.15136719 C-33.40884239 386.23477923 -33.40884239 386.23477923 -30.4375 386.0625 C-31.16504552 364.10755941 -32.75216433 342.20135657 -34.22924805 320.28723145 C-34.50857931 316.12951824 -34.78442741 311.9715768 -35.06027222 307.81363106 C-35.32815971 303.78138231 -35.59800863 299.74926669 -35.86846924 295.71718979 C-35.99658668 293.80439773 -36.12416096 291.89156921 -36.25115967 289.97870255 C-36.4285057 287.31265174 -36.60844383 284.64678786 -36.7890625 281.98095703 C-36.84000061 281.20788208 -36.89093872 280.43480713 -36.94342041 279.63830566 C-37.30022819 274.42638886 -37.83275453 269.25163871 -38.4375 264.0625 C-38.7675 264.0625 -39.0975 264.0625 -39.4375 264.0625 Z M-84.4375 340.0625 C-83.4375 342.0625 -83.4375 342.0625 -83.4375 342.0625 Z " transform="translate(364.4375,27.9375)"/>
</svg>
